<svg width="42" height="42" viewBox="0 0 42 42" fill="none" xmlns="http://www.w3.org/2000/svg">
<path d="M38.5 24.5V20.6465L38.4965 18.8125L38.5 17.5H3.5V24.5C3.5 31.0992 3.5 34.3997 5.551 36.449C7.602 38.4982 10.9008 38.5 17.5 38.5H24.5C31.0992 38.5 34.3997 38.5 36.449 36.449C38.4982 34.398 38.5 31.0992 38.5 24.5Z" fill="#7B70EF"/>
<path opacity="0.5" d="M19.25 7L18.2875 6.0375C17.808 5.558 17.57 5.32 17.318 5.11C16.2342 4.21162 14.9046 3.6609 13.503 3.52975C13.1775 3.5 12.838 3.5 12.1625 3.5C10.6172 3.5 9.8455 3.5 9.2015 3.6225C7.81872 3.88364 6.54675 4.55549 5.55154 5.55039C4.55632 6.54529 3.88408 7.81705 3.6225 9.19975C3.5 9.8455 3.5 10.619 3.5 12.1625V17.5H38.5L38.4177 16.1875C38.2917 14.3517 37.9697 13.1477 37.1525 12.2395C37.0289 12.1014 36.898 11.97 36.7605 11.8458C35.2643 10.5 32.9595 10.5 28.3535 10.5H27.699C25.6813 10.5 24.6715 10.5 23.73 10.2323C23.2133 10.0846 22.7154 9.87786 22.246 9.61625C21.392 9.142 20.678 8.42625 19.25 7Z" fill="#7B70EF"/>
</svg>
