<svg width="82" height="95" viewBox="0 0 82 95" fill="none" xmlns="http://www.w3.org/2000/svg">
<g opacity="0.7">
<ellipse cx="37.8229" cy="75.2709" rx="18.8412" ry="18.8138" transform="rotate(90 37.8229 75.2709)" fill="white" fill-opacity="0.1"/>
<ellipse cx="83.787" cy="37.0755" rx="18.9461" ry="18.9186" transform="rotate(90 83.787 37.0755)" fill="white" fill-opacity="0.1"/>
<path opacity="0.1" d="M19.0103 -0.815741C19.0103 1.6723 19.4996 4.13597 20.4503 6.43462C21.4011 8.73327 22.7946 10.8219 24.5514 12.5812C26.3081 14.3405 28.3937 15.7361 30.689 16.6882C32.9843 17.6403 35.4444 18.1304 37.9288 18.1304C40.4133 18.1304 42.8734 17.6403 45.1687 16.6882C47.464 15.736 49.5496 14.3405 51.3063 12.5812C53.0631 10.8219 54.4566 8.73326 55.4073 6.43462C56.3581 4.13597 56.8474 1.67229 56.8474 -0.815748L37.9288 -0.815741L19.0103 -0.815741Z" fill="white"/>
<path opacity="0.1" d="M0.000238419 56.0562C2.49436 56.0562 4.96406 55.5642 7.26833 54.6083C9.5726 53.6525 11.6663 52.2515 13.4299 50.4853C15.1935 48.7191 16.5925 46.6224 17.547 44.3147C18.5014 42.0071 18.9927 39.5338 18.9927 37.0361C18.9927 34.5383 18.5014 32.065 17.547 29.7574C16.5925 27.4498 15.1935 25.353 13.4299 23.5869C11.6663 21.8207 9.57259 20.4197 7.26832 19.4638C4.96405 18.508 2.49435 18.016 0.000229376 18.016L0.000236758 37.0361L0.000238419 56.0562Z" fill="white"/>
<rect opacity="0.2" x="56.9819" y="18.0273" width="38.0274" height="37.9726" transform="rotate(90 56.9819 18.0273)" fill="white"/>
<path d="M94.9541 56.0542L74.7246 75.7587L56.9819 94.0816L56.9819 56.0542L94.9541 56.0542Z" fill="white" fill-opacity="0.15"/>
<path d="M56.9819 18.0273L77.2114 -1.67714L94.9541 -20.0001L94.9541 18.0273L56.9819 18.0273Z" fill="white" fill-opacity="0.15"/>
</g>
</svg>
