<svg width="320" height="180" viewBox="0 0 320 180" fill="none" xmlns="http://www.w3.org/2000/svg">
<path d="M59.3247 32.6364C59.3247 28.143 62.3133 24.3478 66.4101 23.1258C67.3085 22.8576 68.2625 22.7134 69.2494 22.7134H272.083C273.07 22.7134 274.024 22.8576 274.922 23.1258C279.019 24.3479 282.008 28.143 282.008 32.6364V164.147H59.3247V32.6364Z" fill="white"/>
<path d="M282.007 164.385H59.3244C59.1928 164.385 59.0862 164.278 59.0862 164.146V32.6364C59.0862 28.1765 62.0699 24.1716 66.3417 22.8974C67.2805 22.6171 68.2586 22.4751 69.249 22.4751H272.083C273.073 22.4751 274.051 22.6172 274.99 22.8974C279.262 24.1716 282.246 28.1765 282.246 32.6364V164.146C282.246 164.278 282.139 164.385 282.007 164.385ZM59.5627 163.908H281.769V32.6364C281.769 28.3855 278.926 24.5685 274.854 23.354C273.959 23.0869 273.027 22.9515 272.083 22.9515H69.2491C68.305 22.9515 67.3726 23.087 66.4782 23.354C62.4064 24.5685 59.5629 28.3855 59.5629 32.6364V163.908H59.5627Z" fill="#4C4C5C"/>
<path d="M274.922 29.8145V164.057C273.975 164.195 273.029 164.009 272.083 164.146H69.2493C68.2627 164.146 67.3086 164.002 66.4102 163.734V29.8145H274.922Z" fill="white"/>
<path d="M274.922 30.333H66.4102V42.7965H274.922V30.333Z" fill="#0355AC"/>
<path d="M272.083 164.902H69.2492C68.2588 164.902 67.2807 164.76 66.3417 164.48C66.2409 164.45 66.1716 164.357 66.1716 164.252V30.333C66.1716 30.2015 66.2782 30.0947 66.4099 30.0947H274.922C275.053 30.0947 275.16 30.2015 275.16 30.333V164.252C275.16 164.357 275.091 164.45 274.99 164.48C274.051 164.76 273.073 164.902 272.083 164.902ZM66.6482 164.073C67.4905 164.307 68.3646 164.426 69.2492 164.426H272.083C272.967 164.426 273.841 164.307 274.684 164.073V30.5712H66.6482V164.073Z" fill="#4C4C5C"/>
<path d="M282.223 164.061V171.143C282.223 175.564 278.639 179.146 274.217 179.146H52.8246C44.5135 179.146 37.7771 172.411 37.7771 164.101V164.061H282.223Z" fill="#0355AC"/>
<path d="M282.181 164.299H38.0654C37.9339 164.299 37.8271 164.192 37.8271 164.06C37.8271 163.929 37.9339 163.822 38.0654 163.822H282.181C282.313 163.822 282.42 163.929 282.42 164.06C282.42 164.192 282.313 164.299 282.181 164.299Z" fill="#4C4C5C"/>
<path d="M203.448 151.466H136.62C126.261 151.466 117.864 143.07 117.864 132.713V73.0902C117.864 62.7328 126.261 54.3364 136.62 54.3364H203.448C213.807 54.3364 222.205 62.7328 222.205 73.0902V132.713C222.205 143.07 213.807 151.466 203.448 151.466Z" fill="white"/>
<path d="M203.448 151.705H136.62C126.146 151.705 117.625 143.185 117.625 132.713V73.0906C117.625 62.6184 126.146 54.0986 136.62 54.0986H203.448C213.922 54.0986 222.443 62.6184 222.443 73.0906V132.713C222.443 143.185 213.922 151.705 203.448 151.705ZM136.62 54.5751C126.409 54.5751 118.102 62.8811 118.102 73.0906V132.713C118.102 142.923 126.409 151.229 136.62 151.229H203.448C213.659 151.229 221.966 142.923 221.966 132.713V73.0906C221.966 62.8811 213.659 54.5751 203.448 54.5751H136.62Z" fill="#4C4C5C"/>
<path d="M197.937 87.5998H142.131C137.413 87.5998 133.589 83.7761 133.589 79.0594C133.589 74.3427 137.413 70.519 142.131 70.519H197.937C202.655 70.519 206.479 74.3427 206.479 79.0594C206.479 83.7761 202.655 87.5998 197.937 87.5998Z" fill="#E6F1FD"/>
<path d="M196.43 79.2977H143.638C143.506 79.2977 143.399 79.1912 143.399 79.0595C143.399 78.9279 143.506 78.8213 143.638 78.8213H196.43C196.562 78.8213 196.669 78.9279 196.669 79.0595C196.669 79.1912 196.562 79.2977 196.43 79.2977Z" fill="#4C4C5C"/>
<path d="M197.937 135.284H142.131C137.413 135.284 133.589 131.461 133.589 126.744C133.589 122.027 137.413 118.204 142.131 118.204H197.937C202.655 118.204 206.479 122.027 206.479 126.744C206.479 131.461 202.655 135.284 197.937 135.284Z" fill="#E6F1FD"/>
<path d="M196.43 126.982H143.638C143.506 126.982 143.399 126.875 143.399 126.744C143.399 126.612 143.506 126.505 143.638 126.505H196.43C196.562 126.505 196.669 126.612 196.669 126.744C196.669 126.875 196.562 126.982 196.43 126.982Z" fill="#4C4C5C"/>
<path d="M197.937 111.442H142.131C137.413 111.442 133.589 107.618 133.589 102.902C133.589 98.185 137.413 94.3613 142.131 94.3613H197.937C202.655 94.3613 206.479 98.185 206.479 102.902C206.479 107.618 202.655 111.442 197.937 111.442Z" fill="#0355AC"/>
<path d="M149.647 106.697C151.678 106.697 153.325 105.051 153.325 103.02C153.325 100.99 151.678 99.3433 149.647 99.3433C147.616 99.3433 145.97 100.99 145.97 103.02C145.97 105.051 147.616 106.697 149.647 106.697Z" fill="white"/>
<path d="M163.238 106.697C165.27 106.697 166.916 105.051 166.916 103.02C166.916 100.99 165.27 99.3433 163.238 99.3433C161.207 99.3433 159.561 100.99 159.561 103.02C159.561 105.051 161.207 106.697 163.238 106.697Z" fill="white"/>
<path d="M176.829 106.697C178.861 106.697 180.507 105.051 180.507 103.02C180.507 100.99 178.861 99.3433 176.829 99.3433C174.798 99.3433 173.152 100.99 173.152 103.02C173.152 105.051 174.798 106.697 176.829 106.697Z" fill="white"/>
<path d="M190.421 106.697C192.452 106.697 194.098 105.051 194.098 103.02C194.098 100.99 192.452 99.3433 190.421 99.3433C188.389 99.3433 186.743 100.99 186.743 103.02C186.743 105.051 188.389 106.697 190.421 106.697Z" fill="white"/>
<path d="M93.7297 122.872H41.3122C38.472 122.872 36.1694 120.57 36.1694 117.73V14.8339C36.1694 11.9941 38.472 9.69189 41.3122 9.69189H93.7297C96.5699 9.69189 98.8724 11.9941 98.8724 14.8339V117.73C98.8724 120.57 96.5699 122.872 93.7297 122.872Z" fill="white"/>
<path d="M93.7297 123.11H41.3123C38.3451 123.11 35.9314 120.697 35.9314 117.73V14.8339C35.9314 11.8672 38.3453 9.45361 41.3123 9.45361H93.7297C96.6969 9.45361 99.1108 11.8672 99.1108 14.8339V117.73C99.1108 120.697 96.6969 123.11 93.7297 123.11ZM41.3123 9.93006C38.608 9.93006 36.4079 12.1298 36.4079 14.8339V117.73C36.4079 120.434 38.608 122.634 41.3123 122.634H93.7297C96.4341 122.634 98.6342 120.434 98.6342 117.73V14.8339C98.6342 12.1298 96.4341 9.93006 93.7297 9.93006H41.3123Z" fill="#4C4C5C"/>
<path d="M91.8139 119.898H43.2282C41.0796 119.898 39.3315 118.15 39.3315 116.002V16.5621C39.3315 14.4138 41.0796 12.666 43.2282 12.666H91.8139C93.9626 12.666 95.7106 14.4138 95.7106 16.5621V116.002C95.7106 118.15 93.9626 119.898 91.8139 119.898ZM43.2282 13.1425C41.3423 13.1425 39.8081 14.6765 39.8081 16.5621V116.002C39.8081 117.888 41.3423 119.422 43.2282 119.422H91.8139C93.6999 119.422 95.2341 117.888 95.2341 116.002V16.5621C95.2341 14.6765 93.6999 13.1425 91.8139 13.1425H43.2282Z" fill="#4C4C5C"/>
<path d="M73.8252 16.4844H59.7542V16.9608H73.8252V16.4844Z" fill="#4C4C5C"/>
<path d="M67.3337 85.036C80.9499 85.036 91.9881 73.9994 91.9881 60.3852C91.9881 46.7709 80.9499 35.7344 67.3337 35.7344C53.7174 35.7344 42.6792 46.7709 42.6792 60.3852C42.6792 73.9994 53.7174 85.036 67.3337 85.036Z" fill="#0355AC"/>
<path d="M66.2406 69.6392C66.1648 69.6392 66.0933 69.6031 66.0484 69.5417L57.8509 58.34C57.7732 58.2339 57.7963 58.0848 57.9025 58.0071C58.0086 57.9296 58.1578 57.9525 58.2355 58.0587L66.2213 68.9712L85.4643 36.9967C85.5321 36.884 85.6787 36.8478 85.7913 36.9154C85.9041 36.9832 85.9405 37.1297 85.8726 37.2424L66.4448 69.5239C66.4037 69.5922 66.3311 69.6356 66.2514 69.639C66.2477 69.6392 66.2442 69.6392 66.2406 69.6392Z" fill="white"/>
<path d="M243.693 8.08353V44.803C242.238 48.7124 239.371 54.9212 233.775 61.0262C227.614 67.7454 220.982 71.2502 217.014 72.9794C216.988 72.9905 216.963 73.0014 216.938 73.0126C212.947 71.2472 206.369 67.7163 200.254 61.0262C194.677 54.9231 191.801 48.7275 190.335 44.803V8.08353C199.213 5.46908 208.092 2.85368 216.97 0.238281C216.985 0.242252 216.999 0.247334 217.014 0.251304C225.907 2.86273 234.8 5.47305 243.693 8.08353Z" fill="white"/>
<path d="M243.693 8.08369V44.8032C242.238 48.7126 239.371 54.9214 233.775 61.0263C227.614 67.7456 220.982 71.2503 217.014 72.9795V0.251465C225.907 2.86289 234.8 5.47321 243.693 8.08369Z" fill="#E6F1FD"/>
<path d="M216.938 73.2508C216.905 73.2508 216.872 73.2439 216.841 73.2303C210.52 70.434 204.724 66.2693 200.078 61.1869C195.726 56.4244 192.373 50.94 190.112 44.8862C190.102 44.8595 190.097 44.8314 190.097 44.803V8.0835C190.097 7.97789 190.167 7.88482 190.268 7.85496C199.146 5.24052 208.025 2.62512 216.903 0.00971503C216.944 -0.00251389 216.989 -0.00331065 217.031 0.00796537L217.063 0.0173389C217.065 0.0178154 217.08 0.0222617 217.081 0.0227381C225.974 2.63401 234.867 5.24449 243.76 7.8548C243.862 7.88466 243.931 7.97773 243.931 8.08334V44.8028C243.931 44.8312 243.926 44.8592 243.916 44.8859C241.661 50.949 238.308 56.4335 233.95 61.187C229.284 66.2762 223.461 70.4294 217.109 73.1974L217.034 73.2303C217.003 73.2441 216.97 73.2508 216.938 73.2508ZM190.574 44.7599C192.813 50.7402 196.129 56.1589 200.429 60.8656C205.008 65.8743 210.714 69.9829 216.939 72.7524C223.22 70.0117 228.982 65.9012 233.599 60.8653C237.905 56.1676 241.221 50.7497 243.455 44.7601V8.26185C234.626 5.67043 225.798 3.07901 216.97 0.486641C208.171 3.0787 199.373 5.67059 190.574 8.26169L190.574 44.7599Z" fill="#4C4C5C"/>
<path d="M216.026 14.1678C212.087 15.3281 208.149 16.4882 204.21 17.6486C202.758 18.0761 201.762 19.4081 201.762 20.9208V38.7247C201.762 39.1619 201.847 39.5944 202.01 40.0003C202.91 42.2446 204.532 45.4627 207.433 48.6366C210.217 51.6824 213.169 53.5828 215.408 54.7403C216.39 55.2477 217.553 55.252 218.538 54.7513C220.784 53.6097 223.777 51.7123 226.596 48.6366C229.507 45.4614 231.126 42.2373 232.021 39.9986C232.183 39.5939 232.266 39.163 232.266 38.7272V20.9234C232.266 19.4095 231.269 18.0767 229.816 17.6503L217.952 14.1671C217.323 13.9824 216.655 13.9828 216.026 14.1678Z" fill="white"/>
<path d="M216.984 55.3605C216.405 55.3605 215.826 55.2242 215.299 54.9517C212.26 53.381 209.554 51.3103 207.257 48.7972C204.921 46.2414 203.081 43.3115 201.788 40.0888C201.613 39.6514 201.524 39.1924 201.524 38.7246V20.9207C201.524 19.3136 202.6 17.8741 204.142 17.4199L215.959 13.9391C216.633 13.7406 217.345 13.7404 218.019 13.9383L229.883 17.4215C231.426 17.8747 232.504 19.3146 232.504 20.9232V38.7273C232.504 39.1934 232.416 39.6508 232.242 40.0869C230.953 43.3136 229.112 46.2444 226.771 48.7977C224.453 51.3267 221.719 53.4013 218.646 54.9636C218.125 55.2282 217.555 55.3605 216.984 55.3605ZM216.094 14.3962L204.277 17.877C202.937 18.2718 202 19.5234 202 20.9207V38.7246C202 39.1313 202.078 39.5307 202.231 39.9114C203.502 43.0808 205.311 45.9623 207.608 48.4758C209.867 50.9473 212.528 52.9836 215.517 54.5284C216.428 54.999 217.517 55.003 218.43 54.5388C221.452 53.0024 224.14 50.9624 226.42 48.4755C228.722 45.9647 230.531 43.083 231.799 39.91C231.951 39.5304 232.028 39.1324 232.028 38.7271V20.9232C232.028 19.5247 231.09 18.2727 229.748 17.8787L217.884 14.3955C217.299 14.2234 216.679 14.2237 216.094 14.3962Z" fill="#4C4C5C"/>
<path d="M218.514 33.2704C220.505 32.4459 221.45 30.1637 220.625 28.1731C219.801 26.1825 217.518 25.2372 215.527 26.0618C213.536 26.8863 212.591 29.1684 213.416 31.159C214.24 33.1496 216.523 34.0949 218.514 33.2704Z" fill="#0355AC"/>
<path d="M217.014 40.3203C216.191 40.3203 215.524 39.6531 215.524 38.83V31.2031H218.505V38.83C218.505 39.6531 217.837 40.3203 217.014 40.3203Z" fill="#0355AC"/>
<path d="M293.857 109.765C301.719 101.903 301.719 89.1574 293.857 81.296C285.994 73.4346 273.246 73.4346 265.384 81.296C257.521 89.1574 257.521 101.903 265.384 109.765C273.246 117.626 285.994 117.626 293.857 109.765Z" fill="white"/>
<path d="M279.623 115.898C268.39 115.898 259.251 106.76 259.251 95.5289C259.251 84.2975 268.39 75.1602 279.623 75.1602C290.856 75.1602 299.995 84.2975 299.995 95.5289C299.995 106.76 290.856 115.898 279.623 115.898ZM279.623 75.6365C268.653 75.6365 259.728 84.5602 259.728 95.5288C259.728 106.497 268.653 115.421 279.623 115.421C290.594 115.421 299.519 106.497 299.519 95.5288C299.518 84.5602 290.593 75.6365 279.623 75.6365Z" fill="#4C4C5C"/>
<path d="M278.731 103.13C278.655 103.13 278.583 103.094 278.538 103.033L271.844 93.8851C271.766 93.7788 271.789 93.6297 271.895 93.552C272.002 93.4745 272.151 93.4974 272.229 93.6036L278.711 102.462L294.392 76.4069C294.46 76.294 294.606 76.2579 294.719 76.3256C294.832 76.3934 294.868 76.5398 294.8 76.6526L278.935 103.015C278.894 103.083 278.821 103.126 278.741 103.13C278.738 103.13 278.734 103.13 278.731 103.13Z" fill="#4C4C5C"/>
<path d="M252.126 97.7367H230.2C230.068 97.7367 229.961 97.63 229.961 97.4985C229.961 97.367 230.068 97.2603 230.2 97.2603H252.126C252.257 97.2603 252.364 97.367 252.364 97.4985C252.364 97.63 252.257 97.7367 252.126 97.7367Z" fill="#4C4C5C"/>
<path d="M60.7934 93.3059H36.1205C31.5016 93.3059 27.7571 89.5621 27.7571 84.9437C27.7571 80.3255 31.5016 76.5815 36.1205 76.5815H60.7934C65.4123 76.5815 69.1568 80.3253 69.1568 84.9437C69.1568 89.5621 65.4123 93.3059 60.7934 93.3059Z" fill="white"/>
<path d="M60.7932 93.5439H36.1203C31.3774 93.5439 27.5188 89.686 27.5188 84.9437C27.5188 80.2014 31.3775 76.3433 36.1203 76.3433H60.7932C65.5362 76.3433 69.3949 80.2014 69.3949 84.9437C69.3949 89.6858 65.5362 93.5439 60.7932 93.5439ZM36.1203 76.8197C31.6401 76.8197 27.9953 80.4641 27.9953 84.9437C27.9953 89.4233 31.6402 93.0675 36.1203 93.0675H60.7932C65.2735 93.0675 68.9184 89.4231 68.9184 84.9437C68.9184 80.4641 65.2735 76.8197 60.7932 76.8197H36.1203Z" fill="#4C4C5C"/>
<path d="M37.5696 88.8709C37.2626 88.8709 37.0137 88.622 37.0137 88.315V81.572C37.0137 81.265 37.2626 81.0161 37.5696 81.0161C37.8767 81.0161 38.1256 81.265 38.1256 81.572V88.315C38.1256 88.622 37.8768 88.8709 37.5696 88.8709Z" fill="#0355AC"/>
<path d="M40.9418 85.4994H34.1978C33.8907 85.4994 33.6418 85.2505 33.6418 84.9436C33.6418 84.6366 33.8907 84.3877 34.1978 84.3877H40.9418C41.2489 84.3877 41.4978 84.6366 41.4978 84.9436C41.4978 85.2505 41.249 85.4994 40.9418 85.4994Z" fill="#0355AC"/>
<path d="M39.9543 87.8837C39.8119 87.8837 39.6696 87.8294 39.5611 87.7209L34.7922 82.9528C34.5751 82.7356 34.5751 82.3837 34.7922 82.1666C35.0094 81.9497 35.3614 81.9497 35.5785 82.1666L40.3474 86.9346C40.5645 87.1517 40.5645 87.5037 40.3474 87.7208C40.2387 87.8294 40.0964 87.8837 39.9543 87.8837Z" fill="#0355AC"/>
<path d="M35.1854 87.8836C35.0432 87.8836 34.9007 87.8292 34.7922 87.7208C34.5751 87.5037 34.5751 87.1517 34.7922 86.9346L39.5611 82.1666C39.7783 81.9497 40.1302 81.9497 40.3474 82.1666C40.5645 82.3837 40.5645 82.7357 40.3474 82.9528L35.5785 87.7209C35.47 87.8292 35.3277 87.8836 35.1854 87.8836Z" fill="#0355AC"/>
<path d="M48.4571 88.8709C48.15 88.8709 47.9011 88.622 47.9011 88.315V81.572C47.9011 81.265 48.15 81.0161 48.4571 81.0161C48.7641 81.0161 49.013 81.265 49.013 81.572V88.315C49.013 88.622 48.7641 88.8709 48.4571 88.8709Z" fill="#0355AC"/>
<path d="M51.8291 85.4994H45.085C44.778 85.4994 44.5291 85.2505 44.5291 84.9436C44.5291 84.6366 44.778 84.3877 45.085 84.3877H51.8291C52.1361 84.3877 52.385 84.6366 52.385 84.9436C52.385 85.2505 52.1361 85.4994 51.8291 85.4994Z" fill="#0355AC"/>
<path d="M50.8415 87.8837C50.6991 87.8837 50.5568 87.8294 50.4483 87.7209L45.6795 82.9528C45.4623 82.7356 45.4623 82.3837 45.6795 82.1666C45.8966 81.9497 46.2486 81.9497 46.4657 82.1666L51.2346 86.9346C51.4517 87.1517 51.4517 87.5037 51.2346 87.7208C51.1259 87.8294 50.9836 87.8837 50.8415 87.8837Z" fill="#0355AC"/>
<path d="M46.0726 87.8836C45.9304 87.8836 45.7879 87.8292 45.6795 87.7208C45.4623 87.5037 45.4623 87.1517 45.6795 86.9346L50.4483 82.1666C50.6655 81.9497 51.0175 81.9497 51.2346 82.1666C51.4517 82.3837 51.4517 82.7357 51.2346 82.9528L46.4657 87.7209C46.3572 87.8292 46.2149 87.8836 46.0726 87.8836Z" fill="#0355AC"/>
<path d="M59.344 88.8709C59.037 88.8709 58.7881 88.622 58.7881 88.315V81.572C58.7881 81.265 59.037 81.0161 59.344 81.0161C59.6511 81.0161 59.9 81.265 59.9 81.572V88.315C59.9 88.622 59.6511 88.8709 59.344 88.8709Z" fill="#0355AC"/>
<path d="M62.7163 85.4994H55.9722C55.6652 85.4994 55.4163 85.2505 55.4163 84.9436C55.4163 84.6366 55.6652 84.3877 55.9722 84.3877H62.7163C63.0233 84.3877 63.2722 84.6366 63.2722 84.9436C63.2722 85.2505 63.0233 85.4994 62.7163 85.4994Z" fill="#0355AC"/>
<path d="M61.7284 87.8837C61.5861 87.8837 61.4438 87.8294 61.3353 87.7209L56.5664 82.9528C56.3493 82.7356 56.3493 82.3837 56.5664 82.1666C56.7836 81.9497 57.1355 81.9497 57.3527 82.1666L62.1216 86.9346C62.3387 87.1517 62.3387 87.5037 62.1216 87.7208C62.0129 87.8294 61.8706 87.8837 61.7284 87.8837Z" fill="#0355AC"/>
<path d="M56.9595 87.8836C56.8172 87.8836 56.6749 87.8292 56.5664 87.7208C56.3493 87.5037 56.3493 87.1517 56.5664 86.9346L61.3353 82.1666C61.5524 81.9497 61.9044 81.9497 62.1216 82.1666C62.3387 82.3837 62.3387 82.7357 62.1216 82.9528L57.3527 87.7209C57.2442 87.8292 57.1019 87.8836 56.9595 87.8836Z" fill="#0355AC"/>
<path d="M29.501 147.634C27.7466 147.634 26.3191 146.207 26.3191 144.452C26.3191 142.698 27.7464 141.271 29.501 141.271C31.2554 141.271 32.6827 142.698 32.6827 144.452C32.6827 146.207 31.2555 147.634 29.501 147.634ZM29.501 141.747C28.0093 141.747 26.7956 142.961 26.7956 144.452C26.7956 145.944 28.0093 147.157 29.501 147.157C30.9927 147.157 32.2062 145.944 32.2062 144.452C32.2062 142.961 30.9927 141.747 29.501 141.747Z" fill="#4C4C5C"/>
<path d="M259.546 8.94927C257.792 8.94927 256.365 7.52214 256.365 5.76785C256.365 4.01371 257.792 2.58643 259.546 2.58643C261.301 2.58643 262.728 4.01355 262.728 5.76785C262.728 7.52198 261.301 8.94927 259.546 8.94927ZM259.546 3.06288C258.055 3.06288 256.841 4.2764 256.841 5.76785C256.841 7.2593 258.055 8.47282 259.546 8.47282C261.038 8.47282 262.252 7.2593 262.252 5.76785C262.252 4.2764 261.038 3.06288 259.546 3.06288Z" fill="#4C4C5C"/>
<path d="M319.762 179.384H0.238261C0.106582 179.384 0 179.277 0 179.146C0 179.014 0.106582 178.908 0.238261 178.908H319.762C319.893 178.908 320 179.014 320 179.146C320 179.277 319.893 179.384 319.762 179.384Z" fill="#4C4C5C"/>
</svg>
